<svg height="41" viewBox="0 0 321 41" width="321" xmlns="http://www.w3.org/2000/svg" xmlns:xlink="http://www.w3.org/1999/xlink"><mask id="a" fill="#fff"><path d="m.03182864.08914409h43.32422036v40.88246251h-43.32422036z" fill="#fff" fill-rule="evenodd"/></mask><mask id="b" fill="#fff"><path d="m.03872142.08909554h46.82353818v40.88651426h-46.82353818z" fill="#fff" fill-rule="evenodd"/></mask><mask id="c" fill="#fff"><path d="m.051525.12457143h17.18775v5.83851428h-17.18775z" fill="#fff" fill-rule="evenodd"/></mask><mask id="d" fill="#fff"><path d="m.237825.12457143h17.18775v5.83851428h-17.18775z" fill="#fff" fill-rule="evenodd"/></mask><mask id="e" fill="#fff"><path d="m0 .08914409h43.6216812v40.88246251h-43.6216812z" fill="#fff" fill-rule="evenodd"/></mask><g fill="#009ee2" fill-rule="evenodd"><path d="m258.039323 15.9695633h6.939517c1.805854 0 3.269793 1.3298927 3.269793 2.9684458v3.0070284c0 1.6385531-1.463939 2.9672401-3.269793 2.9672401h-7.229589c-1.55775.2278783-2.747664 1.4540803-2.747664 2.9322747v1.091163c0 1.6397589 1.826838 3.1227761 3.631458 3.1227761l9.09963-.0024114c1.80462 0 3.267325 1.3298927 3.267325 2.9696515v3.004617c0 1.6409645-1.462705 2.9696515-3.267325 2.9696515h-16.145301-2.61065-9.709399c-1.805854 0-3.267325-1.328687-3.267325-2.9696515v-35.06190268c0-1.63975886 1.461471-2.96844582 3.267325-2.96844582h9.709399 2.61065 16.145301c1.80462 0 3.267325 1.32868696 3.267325 2.96844582v3.00582267c0 1.63975886-1.462705 2.96965152-3.267325 2.96965152l-9.462529.00361712c-1.80462 0-3.268559 1.32868697-3.268559 2.96844577v1.0911631c0 1.569828 1.340504 2.8551096 3.037736 2.9624173"/><path d="m.03182864 3.04909748c0-1.63506767 1.40519951-2.95995339 3.13622522-2.95995339h5.06867074 6.7582277 20.1135471c3.8269767 0 7.00941 2.59927669 7.6752803 6.02931203.2997601 1.00989474.3376744 11.90233078 0 13.09977748-.6480979 3.3326526-2.890967 5.6349721-6.7309768 6.9081609 0 0 7.3032461 8.8678376 7.3032461 11.884297 0 1.6350676-1.4040147 2.9611556-3.1374101 2.9611556h-11.669317c-1.2985655-.0949782-2.7535275-1.1517609-4.3601469-3.1691459l-5.9608421-9.2020646-.0959706.3462496v9.0638053c0 1.6350676-1.4040147 2.9611556-3.13741 2.9611556h-.1978654-6.5603623-5.06867074c-1.73102571 0-3.13622522-1.326088-3.13622522-2.9611556zm18.10053366 8.80291582v2.8168849c0 1.6350677 1.4040147 2.9599534 3.13741 2.9599534h4.5805239c1.7322105 0 3.1362252-1.3248857 3.1362252-2.9599534v-2.8168849c0-1.63627-1.4040147-2.96115567-3.1362252-2.96115567h-4.5805239c-1.7333953 0-3.13741 1.32488567-3.13741 2.96115567z" mask="url(#a)" transform="translate(277)"/><path d="m28.9700624 3.04939539c0-1.63522743 1.3891166-2.96029985 3.1003303-2.96029985h11.6915366c1.7135562 0 3.1003303 1.32507242 3.1003303 2.96029985v34.96500991c0 1.6352274-1.3867741 2.9614449-3.1003303 2.9614449h-10.8412005c-2.1926023 0-3.4001733-1.118207-4.2083441-2.0356176l-10.7802948-12.3123006v11.3864733c0 1.6352274-1.3879454 2.9614449-3.1015016 2.9614449h-11.69153655c-1.71238494 0-3.10033033-1.3262175-3.10033033-2.9614449v-34.96500991c0-1.63522743 1.38794539-2.96029985 3.10033033-2.96029985h11.69153655l.1253251.00246201c.9264681-.0360712 1.8599639.32464074 2.5029867 1.05448121l11.5111623 13.09745024z" mask="url(#b)" transform="translate(181)"/><path d="m149.957627 0h12.083535 8.753027c1.771186 0 3.205811 1.32989266 3.205811 2.96844582v4.69863255c0 1.63975886-1.434625 2.96844583-3.205811 2.96844583h-5.546005v27.3948243c0 1.6409645-1.435835 2.9696515-3.207022 2.9696515h-12.083535c-1.769976 0-3.2046-1.328687-3.2046-2.9696515v-27.3948243h-5.547216c-1.769976 0-3.205811-1.32868697-3.205811-2.96844583v-4.69863255c0-1.63855316 1.435835-2.96844582 3.205811-2.96844582z"/><path d="m108.957627 0h12.083535 8.753027c1.769976 0 3.205811 1.32989266 3.205811 2.96844582v4.69863255c0 1.63975886-1.435835 2.96844583-3.205811 2.96844583h-5.547216v27.3948243c0 1.6409645-1.434624 2.9696515-3.205811 2.9696515h-12.083535c-1.769976 0-3.205811-1.328687-3.205811-2.9696515v-27.3948243h-5.546005c-1.7699756 0-3.205811-1.32868697-3.205811-2.96844583v-4.69863255c0-1.63855316 1.4358354-2.96844582 3.205811-2.96844582z"/><path d="m50 13.9340057c0-1.6200762 1.4071519-2.9340057 3.1417692-2.9340057h11.8421445c1.7358038 0 3.1417692 1.3139295 3.1417692 2.9340057v13.5252541c0 1.6200763 1.4059655 2.9328145 3.1417692 2.9328145h.4805199c1.6278351 0 2.9661718-1.1554955 3.1251586-2.6361976v-13.821871c0-1.6200762 1.4071519-2.9340057 3.1417692-2.9340057h11.843331c1.7346173 0 3.1417692 1.3139295 3.1417692 2.9340057v20.0996665c-.0154241.0845775-.0237294.1798761-.0237294.2858958 0 3.6892471-3.2034656 6.680432-7.1555929 6.680432h-7.8057779-13.0309861-1.252911-6.5754097c-3.9521274 0-7.155593-2.9911849-7.155593-6.680432z"/><path d="m.051525 2.5208c0-1.32342857 1.33425-2.39657143 2.979-2.39657143h11.22975c1.64475 0 2.979 1.07314286 2.979 2.39657143v1.04571429c0 1.32342857-1.33425 2.39657142-2.979 2.39657142h-11.22975c-1.64475 0-2.979-1.07314285-2.979-2.39657142z" mask="url(#c)" transform="translate(49)"/><path d="m.237825 2.5208c0-1.32342857 1.33425-2.39657143 2.979-2.39657143h11.22975c1.64475 0 2.979 1.07314286 2.979 2.39657143v1.04571429c0 1.32342857-1.33425 2.39657142-2.979 2.39657142h-11.22975c-1.64475 0-2.979-1.07314285-2.979-2.39657142z" mask="url(#d)" transform="translate(75)"/><path d="m-.00011892 3.04909748c0-1.63506767 1.41037838-2.95995339 3.14897297-2.95995339h11.86929735c1.7397837 0 3.1489729 1.32488572 3.1489729 2.95995339v9.21649172l7.3170811-10.06889097c1.2094054-1.52205564 2.1012973-2.10755414 3.7732973-2.10755414h11.2425946c1.3758919 0 3.8446486 2.63414211 2.3355676 5.15166542l-11.1236757 14.77451959 11.4614054 15.8060548c1.2985946 1.6482925-.4518919 5.1504632-2.3450811 5.1504632h-11.9537297c-1.7611892 0-2.1215135-.428003-3.1073514-1.6699331l-7.6001081-10.1566556v8.8654331c0 1.6350676-1.4091892 2.9611556-3.1489729 2.9611556h-11.86929735c-1.73859459 0-3.14897297-1.326088-3.14897297-2.9611556z" mask="url(#e)"/></g></svg>